PathFileType	4	(X/Y/Z)	C:/Users/beibeiliu/ov580/test_trc\sequence.5_training_dense_left.trc
DataRate	CameraRate	NumFrames	NumMarkers	Units	OrigDataRate	OrigDataStartFrame	OrigNumFrames
120	120	14	19	mm	120	295	336
Frame#	Time	ThumbCMC			ThumbMCP			ThumbIP			ThumbTip			IndexMCP			IndexPIP			IndexTip			MiddleMCP			MiddlePIP			MiddleTip			RingMCP			RingPIP			RingTip			PinkyMCP			PinkyPIP			PinkyTip			BackHand1			BackHand2			BackHand3	
		X0	Y0	Z0	X1	Y1	Z1	X2	Y2	Z2	X3	Y3	Z3	X4	Y4	Z4	X5	Y5	Z5	X6	Y6	Z6	X7	Y7	Z7	X8	Y8	Z8	X9	Y9	Z9	X10	Y10	Z10	X11	Y11	Z11	X12	Y12	Z12	X13	Y13	Z13	X14	Y14	Z14	X15	Y15	Z15	X16	Y16	Z16	X17	Y17	Z17	X18	Y18	Z18	
294	2.45	-138.809	28.3403	27.0635	-132.569	21.554	-1.49351	-133.523	21.6554	-23.7475	-139.183	21.402	-44.5328	-135.792	61.2675	-26.7969	-135.893	57.4401	-53.8801	-133.054	43.4327	-77.3003	-159.043	50.6474	-39.3741	-158.752	24.5809	-48.3571	-158.739	12.3466	-13.3714	-176.776	41.9416	-32.4557	-172.688	13.9401	-26.8311	-171.768	16.234	-0.132898	-191.339	35.3123	-28.6201	-182.339	15.2649	-17.2146	-176.782	25.845	6.88531	-182.347	62.7964	10.6646	-187.76	55.0105	41.2236	-158.536	56.5656	31.2331	
295	2.45833	-143.512	26.439	28.5889	-131.503	16.5216	-3.14094	-135.434	19.1033	-24.6357	-138.494	19.2389	-50.1164	-134.48	55.9492	-34.1962	-137.051	47.4814	-56.8638	-135.434	32.3922	-74.5566	-155.468	49.5266	-37.5337	-159.938	22.2107	-49.2385	-161.362	10.3912	-15.6412	-174.225	39.6443	-32.6184	-173.66	10.5693	-24.5807	-167.415	17.4167	-0.457513	-192.872	35.4754	-26.6257	-182.049	13.5603	-17.9105	-176.05	23.4562	6.69526	-179.012	61.3645	12.1104	-184.571	54.7164	35.8854	-157.501	54.4415	28.685	
296	2.46667	-142.955	24.2679	28.1907	-135.572	14.9097	-1.93482	-134.775	17.3371	-30.4079	-141.444	16.846	-50.5073	-135.996	53.6923	-34.7058	-134.006	47.1416	-54.8778	-137.402	30.1512	-76.684	-154.956	45.6318	-41.2782	-157.636	17.5044	-48.1338	-163.36	8.28297	-18.6499	-175.155	37.7309	-33.8679	-174.692	9.37941	-26.8654	-171.634	14.4774	-0.513607	-191.281	31.7621	-28.5637	-180.682	12.7113	-18.6357	-175.075	18.6738	2.91842	-181.441	61.9474	7.84481	-182.473	51.302	36.5853	-157.128	53.6797	29.1619	
297	2.475	-140.132	24.5957	23.0687	-136.986	14.4857	-2.88186	-135.996	13.6313	-28.1601	-145.481	14.647	-49.906	-135.022	56.8293	-33.4555	-132.864	52.5315	-56.9999	-136.016	42.4831	-80.5452	-160.913	46.2117	-40.8883	-158.64	16.0831	-48.224	-160.836	7.53459	-15.5786	-176.202	34.5121	-35.9967	-176.426	8.65911	-28.4487	-168.144	14.6999	0.23656	-194.283	32.5331	-27.6569	-183.009	11.5998	-21.4133	-178.033	21.6845	6.61568	-183.41	56.6774	10.1918	-187.155	53.1245	35.0229	-158.346	52.8988	23.504	
298	2.48333	-142.197	24.1301	23.5814	-134.046	11.4005	-3.3883	-138.342	13.4798	-29.425	-145.541	12.114	-48.4047	-139.35	60.7566	-32.1153	-136.901	61.5847	-54.8108	-132.644	61.0425	-79.5308	-157.174	42.6864	-42.4371	-158.894	15.0007	-48.7715	-164.541	6.5291	-13.4472	-174.722	32.0795	-36.089	-170.639	6.61652	-25.5271	-171.453	11.1713	-1.2962	-190.517	29.2332	-28.2185	-184.273	8.33799	-16.2986	-181.263	15.4585	5.37856	-181.577	55.8669	9.98509	-185.58	50.187	36.3752	-159.447	52.5482	25.6459	
299	2.49167	-141.781	23.921	22.9882	-137.183	12.3332	-1.31258	-137.837	12.2835	-30.0871	-147.121	11.4922	-52.8858	-141.759	60.9158	-31.8719	-139.457	66.3283	-50.8033	-135.501	70.8054	-70.043	-162.901	40.317	-43.9965	-161.298	13.7648	-49.0172	-161.624	2.63834	-18.2622	-180.977	32.1505	-34.0279	-176.012	4.59277	-26.0373	-170.159	9.3018	-1.72885	-196.73	27.9338	-26.8953	-184.422	8.2665	-20.9686	-178.458	17.9591	7.42815	-185.335	55.1563	10.1474	-188.718	49.6985	35.3395	-161.295	51.5236	24.5561	
300	2.5	-144.364	21.4067	27.285	-136.276	12.2352	-5.59583	-139.538	10.921	-27.6098	-147.772	7.17049	-51.0639	-145.756	60.8057	-31.5053	-137.999	65.8534	-49.3471	-140.154	74.5646	-69.6124	-165.462	39.4243	-43.285	-162.532	11.2382	-49.1162	-161.355	1.57441	-19.3991	-181.228	27.3811	-37.1694	-174.441	4.46165	-29.5318	-172.861	9.53266	1.81803	-196.168	21.9939	-29.2371	-187.083	3.80663	-19.1927	-180.232	12.4867	3.15457	-186.023	51.546	9.33726	-186.29	49.4284	33.6857	-164.761	51.594	23.6872	
301	2.50833	-146.097	22.4818	23.4966	-135.955	10.7883	-6.36082	-137.324	5.93119	-28.0262	-146.241	4.45334	-47.9369	-147.14	56.9313	-29.8097	-141.763	63.4359	-49.9765	-137.767	72.5376	-70.7977	-166.087	38.937	-40.9666	-164.583	6.8059	-46.9691	-166.004	-0.528385	-18.3083	-179.787	27.5549	-35.0562	-177.473	0.0596042	-28.2908	-169.812	8.7438	1.03296	-198.209	21.0754	-29.7477	-187.273	1.95777	-18.5222	-179.803	11.5182	3.35117	-190.585	50.2383	8.07267	-190.156	48.1396	33.6568	-162.137	51.9092	23.5795	
302	2.51667	-143.701	20.3111	23.7605	-135.415	7.91557	-6.97375	-138.374	5.03315	-26.2547	-148.869	2.62708	-52.9494	-143.573	55.1393	-31.0762	-142.877	60.4382	-51.9412	-141.04	67.4435	-77.6574	-167	34.3587	-44.4775	-164.389	4.55805	-47.6163	-162.451	-3.66094	-19.5808	-181.091	22.5824	-38.3723	-179.432	-1.54946	-28.6437	-172.341	6.81273	1.4825	-196.938	19.8898	-29.0412	-185.544	1.09736	-18.9557	-181.058	10.6419	4.42337	-189.365	50.1063	7.93815	-192.4	45.8765	32.8565	-161.991	48.2775	24.8644	
303	2.525	-146.341	19.2205	23.9701	-135.664	6.759	-6.2384	-140.601	4.2237	-27.0461	-147.749	-0.680396	-51.0905	-149.68	52.2985	-33.7409	-148.548	55.1923	-59.4999	-145.829	55.7271	-80.803	-166.995	31.5927	-47.4514	-167.808	2.28548	-47.4027	-161.885	-3.27928	-17.137	-186.029	22.7318	-35.6868	-176.034	-1.62249	-29.2754	-173.129	4.26395	-0.631291	-196.833	19.9623	-28.1574	-188.374	-2.34179	-15.4204	-181.953	7.5434	3.77635	-189.224	49.5545	4.05858	-192.498	47.6305	30.6513	-164	48.0697	23.1866	
304	2.53333	-147.918	19.3003	22.5046	-137.066	4.0641	-5.42276	-142.852	4.33331	-28.5936	-152.929	1.50307	-50.3513	-149.754	47.1483	-36.8889	-149.527	45.5454	-63.0481	-150.231	38.9926	-85.1262	-171.366	30.3246	-44.4287	-170.58	3.39035	-50.5067	-167.788	-5.59779	-16.5996	-184.72	18.4114	-37.7607	-176.034	-4.74769	-26.2733	-174.763	0.597509	-2.23434	-199.436	15.5907	-28.1132	-188.196	-1.95611	-16.8916	-181.533	7.13772	5.74035	-188.441	49.0761	8.15662	-187.997	44.384	31.3494	-160.987	47.8452	21.6332	
305	2.54167	-148.101	19.2438	21.5757	-142.865	4.71184	-3.21039	-141.956	1.05541	-29.5139	-152.176	-2.63008	-51.3859	-147.048	41.4544	-41.6912	-150.356	35.2205	-63.3254	-150.813	16.1688	-85.3555	-172.204	29.8497	-42.9677	-169.641	0.598437	-50.1475	-165.88	-7.91241	-16.9777	-188.291	18.1785	-36.6443	-184.314	-6.92052	-28.6013	-174.966	0.337616	-1.64493	-204.477	16.9037	-26.8997	-191.603	-5.07405	-17.2151	-182.727	7.50272	6.2081	-190.866	46.5724	6.33254	-192.86	47.0457	29.5347	-164.755	46.8845	22.6653	
306	2.55	-150.184	15.925	24.4658	-145.305	2.57586	-4.86086	-145.127	-0.748531	-31.2732	-151.422	-6.33069	-50.0768	-151.722	34.931	-41.6713	-153.073	19.7999	-64.6008	-154.282	-2.57296	-75.1525	-172.206	26.3723	-44.7588	-172.625	-2.9263	-49.1054	-168.794	-9.59467	-15.5107	-190.441	14.6479	-37.835	-182.19	-9.44351	-24.7505	-179.939	-2.87352	-0.896967	-201.887	16.2677	-27.7378	-192.319	-5.45198	-16.8206	-186.649	3.88856	5.0571	-189.899	46.4881	4.18415	-191.956	45.5391	30.1613	-167.505	46.4916	20.2812	
307	2.55833	-147.13	13.6267	24.1416	-141.656	-3.77446	-3.5032	-146.99	-5.03815	-28.0253	-156.014	-8.21463	-50.3503	-149.842	30.2624	-41.8855	-154.095	11.5692	-61.5688	-158.227	-13.0576	-65.6699	-174.106	22.5471	-45.0858	-175.625	-8.78734	-46.4884	-172.997	-12.5151	-16.2651	-187.741	13.507	-38.7512	-183.215	-10.5102	-27.3648	-182.819	-6.21321	-1.78202	-205.135	12.2415	-28.782	-195.634	-7.72249	-19.4697	-187.552	2.71733	5.70011	-192.105	44.1441	4.71818	-190.142	44.4041	28.5863	-163.399	44.6144	20.4509	
